<svg width="50" height="50" viewBox="0 0 50 50" fill="none" xmlns="http://www.w3.org/2000/svg">
<path d="M29 15V14C29 11.7909 27.2091 10 25 10V10C22.7909 10 21 11.7909 21 14V15" stroke="#323232" stroke-width="2" stroke-linecap="round"/>
<path fill-rule="evenodd" clip-rule="evenodd" d="M16.8787 14.8787C16 15.7574 16 17.1716 16 20V21C16 24.7712 16 26.6569 17.1716 27.8284C18.3431 29 20.2288 29 24 29H26C29.7712 29 31.6569 29 32.8284 27.8284C34 26.6569 34 24.7712 34 21V20C34 17.1716 34 15.7574 33.1213 14.8787C32.2426 14 30.8284 14 28 14H22C19.1716 14 17.7574 14 16.8787 14.8787ZM25 22C25.5523 22 26 21.5523 26 21C26 20.4477 25.5523 20 25 20C24.4477 20 24 20.4477 24 21C24 21.5523 24.4477 22 25 22ZM28 21C28 22.3062 27.1652 23.4175 26 23.8293V26H24V23.8293C22.8348 23.4175 22 22.3062 22 21C22 19.3431 23.3431 18 25 18C26.6569 18 28 19.3431 28 21Z" fill="#323232"/>
<path d="M16.1905 41.5101H15.8235C14.4925 41.5101 13.827 41.5101 13.4135 41.1036C13 40.6971 13 40.0429 13 38.7346V37.1914C13 36.4718 13 36.1121 13.188 35.7909C13.376 35.4695 13.6597 35.3074 14.227 34.9831C17.9617 32.8477 23.2657 31.6458 26.8058 33.7213C27.0435 33.8608 27.2576 34.0291 27.4402 34.2309C28.2281 35.1009 28.1708 36.4138 27.2628 37.1929C27.0709 37.3574 26.8666 37.4823 26.6608 37.5256C26.8299 37.5063 26.992 37.4842 27.1467 37.4599C28.4334 37.2581 29.5134 36.5823 30.5022 35.848L33.0536 33.9536C33.953 33.2857 35.288 33.2855 36.1875 33.9532C36.9975 34.5544 37.2451 35.5441 36.733 36.3508C36.136 37.2917 35.2947 38.4953 34.4869 39.2307C33.678 39.9672 32.4737 40.6247 31.4906 41.0911C30.4014 41.6079 29.1983 41.9056 27.9745 42.1004C25.4924 42.4952 22.9058 42.435 20.4489 41.9375C19.06 41.6562 17.6176 41.5101 16.1905 41.5101Z" fill="#323232"/>
</svg>
