<svg width="318" height="48" viewBox="0 0 318 48" fill="none" xmlns="http://www.w3.org/2000/svg">
<g clip-path="url(#clip0_1232_16536)">
<path d="M310 0H8C3.58172 0 0 3.58172 0 8V40C0 44.4183 3.58172 48 8 48H310C314.418 48 318 44.4183 318 40V8C318 3.58172 314.418 0 310 0Z" fill="#F4333D"/>
<path d="M23.56 29.9993L20.932 25.2293H20.194V29.9993H17.116V17.3633H22.282C23.278 17.3633 24.124 17.5373 24.82 17.8853C25.528 18.2333 26.056 18.7133 26.404 19.3253C26.752 19.9253 26.926 20.5973 26.926 21.3413C26.926 22.1813 26.686 22.9313 26.206 23.5913C25.738 24.2513 25.042 24.7193 24.118 24.9953L27.034 29.9993H23.56ZM20.194 23.0513H22.102C22.666 23.0513 23.086 22.9133 23.362 22.6373C23.65 22.3613 23.794 21.9713 23.794 21.4673C23.794 20.9873 23.65 20.6093 23.362 20.3333C23.086 20.0573 22.666 19.9193 22.102 19.9193H20.194V23.0513Z" fill="white"/>
<path d="M38.3262 24.8165C38.3262 25.1045 38.3082 25.4045 38.2722 25.7165H31.3062C31.3542 26.3405 31.5522 26.8205 31.9002 27.1565C32.2602 27.4805 32.6982 27.6425 33.2142 27.6425C33.9822 27.6425 34.5162 27.3185 34.8162 26.6705H38.0922C37.9242 27.3305 37.6182 27.9245 37.1742 28.4525C36.7422 28.9805 36.1962 29.3945 35.5362 29.6945C34.8762 29.9945 34.1382 30.1445 33.3222 30.1445C32.3382 30.1445 31.4622 29.9345 30.6942 29.5145C29.9262 29.0945 29.3262 28.4945 28.8942 27.7145C28.4622 26.9345 28.2462 26.0225 28.2462 24.9785C28.2462 23.9345 28.4562 23.0225 28.8762 22.2425C29.3082 21.4625 29.9082 20.8625 30.6762 20.4425C31.4442 20.0225 32.3262 19.8125 33.3222 19.8125C34.2942 19.8125 35.1582 20.0165 35.9142 20.4245C36.6702 20.8325 37.2582 21.4145 37.6782 22.1705C38.1102 22.9265 38.3262 23.8085 38.3262 24.8165ZM35.1762 24.0065C35.1762 23.4785 34.9962 23.0585 34.6362 22.7465C34.2762 22.4345 33.8262 22.2785 33.2862 22.2785C32.7702 22.2785 32.3322 22.4285 31.9722 22.7285C31.6242 23.0285 31.4082 23.4545 31.3242 24.0065H35.1762Z" fill="white"/>
<path d="M45.548 27.3898V29.9998H43.982C42.866 29.9998 41.996 29.7298 41.372 29.1898C40.748 28.6378 40.436 27.7438 40.436 26.5078V22.5118H39.212V19.9558H40.436V17.5078H43.514V19.9558H45.53V22.5118H43.514V26.5438C43.514 26.8438 43.586 27.0598 43.73 27.1918C43.874 27.3238 44.114 27.3898 44.45 27.3898H45.548Z" fill="white"/>
<path d="M50.3405 21.6297C50.7005 21.0777 51.1505 20.6457 51.6905 20.3337C52.2305 20.0097 52.8305 19.8477 53.4905 19.8477V23.1057H52.6445C51.8765 23.1057 51.3005 23.2737 50.9165 23.6097C50.5325 23.9337 50.3405 24.5097 50.3405 25.3377V29.9997H47.2625V19.9557H50.3405V21.6297Z" fill="white"/>
<path d="M56.5097 18.912C55.9697 18.912 55.5257 18.756 55.1777 18.444C54.8417 18.12 54.6737 17.724 54.6737 17.256C54.6737 16.776 54.8417 16.38 55.1777 16.068C55.5257 15.744 55.9697 15.582 56.5097 15.582C57.0377 15.582 57.4697 15.744 57.8057 16.068C58.1537 16.38 58.3277 16.776 58.3277 17.256C58.3277 17.724 58.1537 18.12 57.8057 18.444C57.4697 18.756 57.0377 18.912 56.5097 18.912ZM58.0397 19.956V30H54.9617V19.956H58.0397Z" fill="white"/>
<path d="M69.7383 24.8165C69.7383 25.1045 69.7203 25.4045 69.6843 25.7165H62.7183C62.7663 26.3405 62.9643 26.8205 63.3123 27.1565C63.6723 27.4805 64.1103 27.6425 64.6263 27.6425C65.3943 27.6425 65.9283 27.3185 66.2283 26.6705H69.5043C69.3363 27.3305 69.0303 27.9245 68.5863 28.4525C68.1543 28.9805 67.6083 29.3945 66.9483 29.6945C66.2883 29.9945 65.5503 30.1445 64.7343 30.1445C63.7503 30.1445 62.8743 29.9345 62.1063 29.5145C61.3383 29.0945 60.7383 28.4945 60.3063 27.7145C59.8743 26.9345 59.6583 26.0225 59.6583 24.9785C59.6583 23.9345 59.8683 23.0225 60.2883 22.2425C60.7203 21.4625 61.3203 20.8625 62.0883 20.4425C62.8563 20.0225 63.7383 19.8125 64.7343 19.8125C65.7063 19.8125 66.5703 20.0165 67.3263 20.4245C68.0823 20.8325 68.6703 21.4145 69.0903 22.1705C69.5223 22.9265 69.7383 23.8085 69.7383 24.8165ZM66.5883 24.0065C66.5883 23.4785 66.4083 23.0585 66.0483 22.7465C65.6883 22.4345 65.2383 22.2785 64.6983 22.2785C64.1823 22.2785 63.7443 22.4285 63.3843 22.7285C63.0363 23.0285 62.8203 23.4545 62.7363 24.0065H66.5883Z" fill="white"/>
<path d="M75.8801 27.1191L78.0581 19.9551H81.3341L77.7701 29.9991H73.9721L70.4081 19.9551H73.7021L75.8801 27.1191Z" fill="white"/>
<path d="M92.0977 24.8165C92.0977 25.1045 92.0797 25.4045 92.0437 25.7165H85.0777C85.1257 26.3405 85.3237 26.8205 85.6717 27.1565C86.0317 27.4805 86.4697 27.6425 86.9857 27.6425C87.7537 27.6425 88.2877 27.3185 88.5877 26.6705H91.8637C91.6957 27.3305 91.3897 27.9245 90.9457 28.4525C90.5137 28.9805 89.9677 29.3945 89.3077 29.6945C88.6477 29.9945 87.9097 30.1445 87.0937 30.1445C86.1097 30.1445 85.2337 29.9345 84.4657 29.5145C83.6977 29.0945 83.0977 28.4945 82.6657 27.7145C82.2337 26.9345 82.0177 26.0225 82.0177 24.9785C82.0177 23.9345 82.2277 23.0225 82.6477 22.2425C83.0797 21.4625 83.6797 20.8625 84.4477 20.4425C85.2157 20.0225 86.0977 19.8125 87.0937 19.8125C88.0657 19.8125 88.9297 20.0165 89.6857 20.4245C90.4417 20.8325 91.0297 21.4145 91.4497 22.1705C91.8817 22.9265 92.0977 23.8085 92.0977 24.8165ZM88.9477 24.0065C88.9477 23.4785 88.7677 23.0585 88.4077 22.7465C88.0477 22.4345 87.5977 22.2785 87.0577 22.2785C86.5417 22.2785 86.1037 22.4285 85.7437 22.7285C85.3957 23.0285 85.1797 23.4545 85.0957 24.0065H88.9477Z" fill="white"/>
<path d="M111.846 17.3633V29.9993H108.768V22.4213L105.942 29.9993H103.458L100.614 22.4033V29.9993H97.5359V17.3633H101.172L104.718 26.1113L108.228 17.3633H111.846Z" fill="white"/>
<path d="M124.319 19.9551L118.019 34.7691H114.707L117.011 29.6571L112.925 19.9551H116.363L118.685 26.2371L120.989 19.9551H124.319Z" fill="white"/>
<path d="M126.98 18.912C126.44 18.912 125.996 18.756 125.648 18.444C125.312 18.12 125.144 17.724 125.144 17.256C125.144 16.776 125.312 16.38 125.648 16.068C125.996 15.744 126.44 15.582 126.98 15.582C127.508 15.582 127.94 15.744 128.276 16.068C128.624 16.38 128.798 16.776 128.798 17.256C128.798 17.724 128.624 18.12 128.276 18.444C127.94 18.756 127.508 18.912 126.98 18.912ZM128.51 19.956V30H125.432V19.956H128.51Z" fill="white"/>
<path d="M136.861 19.8477C138.037 19.8477 138.973 20.2317 139.669 20.9997C140.377 21.7557 140.731 22.7997 140.731 24.1317V29.9997H137.671V24.5457C137.671 23.8737 137.497 23.3517 137.149 22.9797C136.801 22.6077 136.333 22.4217 135.745 22.4217C135.157 22.4217 134.689 22.6077 134.341 22.9797C133.993 23.3517 133.819 23.8737 133.819 24.5457V29.9997H130.741V19.9557H133.819V21.2877C134.131 20.8437 134.551 20.4957 135.079 20.2437C135.607 19.9797 136.201 19.8477 136.861 19.8477Z" fill="white"/>
<path d="M147.91 22.5127H146.254V30.0007H143.176V22.5127H142.06V19.9567H143.176V19.6687C143.176 18.4327 143.53 17.4967 144.238 16.8607C144.946 16.2127 145.984 15.8887 147.352 15.8887C147.58 15.8887 147.748 15.8947 147.856 15.9067V18.5167C147.268 18.4807 146.854 18.5647 146.614 18.7687C146.374 18.9727 146.254 19.3387 146.254 19.8667V19.9567H147.91V22.5127Z" fill="white"/>
<path d="M153.928 30.1445C152.944 30.1445 152.056 29.9345 151.264 29.5145C150.484 29.0945 149.866 28.4945 149.41 27.7145C148.966 26.9345 148.744 26.0225 148.744 24.9785C148.744 23.9465 148.972 23.0405 149.428 22.2605C149.884 21.4685 150.508 20.8625 151.3 20.4425C152.092 20.0225 152.98 19.8125 153.964 19.8125C154.948 19.8125 155.836 20.0225 156.628 20.4425C157.42 20.8625 158.044 21.4685 158.5 22.2605C158.956 23.0405 159.184 23.9465 159.184 24.9785C159.184 26.0105 158.95 26.9225 158.482 27.7145C158.026 28.4945 157.396 29.0945 156.592 29.5145C155.8 29.9345 154.912 30.1445 153.928 30.1445ZM153.928 27.4805C154.516 27.4805 155.014 27.2645 155.422 26.8325C155.842 26.4005 156.052 25.7825 156.052 24.9785C156.052 24.1745 155.848 23.5565 155.44 23.1245C155.044 22.6925 154.552 22.4765 153.964 22.4765C153.364 22.4765 152.866 22.6925 152.47 23.1245C152.074 23.5445 151.876 24.1625 151.876 24.9785C151.876 25.7825 152.068 26.4005 152.452 26.8325C152.848 27.2645 153.34 27.4805 153.928 27.4805Z" fill="white"/>
<path d="M179.05 19.9551L176.332 29.9991H172.93L171.346 23.4831L169.708 29.9991H166.324L163.588 19.9551H166.666L168.088 27.1371L169.78 19.9551H173.038L174.748 27.1011L176.152 19.9551H179.05Z" fill="white"/>
<path d="M181.771 18.912C181.231 18.912 180.787 18.756 180.439 18.444C180.103 18.12 179.935 17.724 179.935 17.256C179.935 16.776 180.103 16.38 180.439 16.068C180.787 15.744 181.231 15.582 181.771 15.582C182.299 15.582 182.731 15.744 183.067 16.068C183.415 16.38 183.589 16.776 183.589 17.256C183.589 17.724 183.415 18.12 183.067 18.444C182.731 18.756 182.299 18.912 181.771 18.912ZM183.301 19.956V30H180.223V19.956H183.301Z" fill="white"/>
<path d="M191.13 27.3898V29.9998H189.564C188.448 29.9998 187.578 29.7298 186.954 29.1898C186.33 28.6378 186.018 27.7438 186.018 26.5078V22.5118H184.794V19.9558H186.018V17.5078H189.096V19.9558H191.112V22.5118H189.096V26.5438C189.096 26.8438 189.168 27.0598 189.312 27.1918C189.456 27.3238 189.696 27.3898 190.032 27.3898H191.13Z" fill="white"/>
<path d="M199.019 19.8477C200.171 19.8477 201.095 20.2317 201.791 20.9997C202.487 21.7557 202.835 22.7997 202.835 24.1317V29.9997H199.775V24.5457C199.775 23.8737 199.601 23.3517 199.253 22.9797C198.905 22.6077 198.437 22.4217 197.849 22.4217C197.261 22.4217 196.793 22.6077 196.445 22.9797C196.097 23.3517 195.923 23.8737 195.923 24.5457V29.9997H192.845V16.6797H195.923V21.3057C196.235 20.8617 196.661 20.5077 197.201 20.2437C197.741 19.9797 198.347 19.8477 199.019 19.8477Z" fill="white"/>
<path d="M214.19 30.2612C217.07 30.2612 218.822 28.7561 218.822 26.3688C218.822 24.734 217.823 23.6182 215.76 23.1641L213.736 22.71C212.97 22.5284 212.568 22.2819 212.568 21.8278C212.568 21.3737 212.944 21.0882 213.865 21.0882C214.933 21.1255 215.953 21.5391 216.746 22.2559L218.445 19.7648C217.108 18.8294 215.495 18.3723 213.865 18.4674C211.167 18.4674 209.35 19.7648 209.35 22.0613C209.333 22.8765 209.621 23.6687 210.159 24.2813C210.698 24.8938 211.446 25.2823 212.257 25.3698L214.268 25.8498C215.267 26.0704 215.565 26.3688 215.565 26.7581C215.565 27.1473 215.163 27.5235 214.268 27.5235C212.999 27.4986 211.776 27.0409 210.803 26.2261L209 28.6394C210.485 29.7749 212.323 30.3493 214.19 30.2612Z" fill="white"/>
<path d="M222.181 22.2938C222.572 22.2938 222.954 22.1778 223.278 21.9605C223.603 21.7433 223.856 21.4345 224.005 21.0734C224.153 20.7123 224.192 20.3151 224.115 19.9322C224.037 19.5493 223.848 19.1979 223.571 18.9226C223.294 18.6473 222.942 18.4605 222.558 18.3859C222.175 18.3113 221.778 18.3522 221.418 18.5035C221.058 18.6547 220.75 18.9095 220.535 19.2355C220.32 19.5615 220.207 19.9441 220.209 20.3347C220.206 20.594 220.254 20.8515 220.352 21.0916C220.45 21.3317 220.596 21.5497 220.78 21.7325C220.964 21.9153 221.183 22.0592 221.424 22.1556C221.664 22.2521 221.922 22.2991 222.181 22.2938Z" fill="white"/>
<path d="M220.055 30.0002H224.31L223.415 22.9551C222.611 23.1627 221.767 23.1627 220.963 22.9551L220.055 30.0002Z" fill="white"/>
<path d="M226.307 30.0002H229.758V23.9022C229.758 22.4102 230.484 21.489 231.886 21.489C233.287 21.489 233.923 22.2545 233.923 23.9022V30.0002H237.322V23.0459C237.322 20.0099 235.804 18.453 233.209 18.453C232.533 18.4236 231.861 18.5679 231.257 18.8723C230.652 19.1767 230.136 19.6309 229.758 20.1915V19.465C229.768 19.3585 229.754 19.2512 229.718 19.1506C229.682 19.0501 229.624 18.9587 229.548 18.8831C229.473 18.8075 229.381 18.7496 229.281 18.7133C229.18 18.6771 229.073 18.6635 228.966 18.6735H226.371L226.307 30.0002Z" fill="white"/>
<path d="M248.441 18.6758C248.334 18.6658 248.227 18.6794 248.127 18.7156C248.026 18.7519 247.935 18.8098 247.859 18.8854C247.783 18.961 247.725 19.0524 247.689 19.1529C247.653 19.2535 247.639 19.3608 247.649 19.4673V20.1549C247.272 19.5989 246.757 19.1501 246.154 18.8522C245.552 18.5543 244.882 18.4176 244.211 18.4553C242.814 18.5897 241.518 19.2396 240.574 20.2783C239.631 21.317 239.108 22.6699 239.108 24.0732C239.108 25.4764 239.631 26.8294 240.574 27.8681C241.518 28.9068 242.814 29.5567 244.211 29.6911C244.86 29.732 245.51 29.6194 246.107 29.3624C246.704 29.1055 247.233 28.7113 247.649 28.212V28.9645C247.65 29.32 247.578 29.6718 247.437 29.9981C247.296 30.3245 247.09 30.6184 246.831 30.8617C246.572 31.105 246.265 31.2925 245.931 31.4125C245.596 31.5325 245.241 31.5825 244.886 31.5594C243.612 31.5842 242.377 31.1199 241.435 30.262L239.657 32.8569C241.171 34.0013 243.043 34.5714 244.938 34.4657C248.337 34.4657 251.101 32.7661 251.101 28.4975V18.6758H248.441ZM245.119 26.694C244.606 26.694 244.105 26.5418 243.678 26.2567C243.251 25.9716 242.918 25.5663 242.722 25.0922C242.526 24.618 242.474 24.0963 242.574 23.5929C242.675 23.0895 242.922 22.6272 243.285 22.2643C243.647 21.9014 244.11 21.6542 244.613 21.5541C245.117 21.454 245.638 21.5054 246.112 21.7018C246.587 21.8982 246.992 22.2308 247.277 22.6575C247.562 23.0842 247.714 23.5859 247.714 24.0991C247.714 24.7873 247.441 25.4474 246.954 25.934C246.468 26.4206 245.808 26.694 245.119 26.694Z" fill="white"/>
<path d="M260.6 18.4534C259.908 18.4227 259.219 18.5615 258.592 18.8577C257.966 19.1539 257.421 19.5986 257.006 20.153V19.4654C257.016 19.359 257.002 19.2516 256.966 19.1511C256.93 19.0505 256.872 18.9591 256.796 18.8836C256.721 18.808 256.629 18.75 256.529 18.7138C256.428 18.6775 256.321 18.6639 256.215 18.6739H253.62V34.1524H257.006V28.7551C257.457 29.2555 258.013 29.6499 258.634 29.9101C259.256 30.1703 259.927 30.2898 260.6 30.2601C261.342 30.2412 262.073 30.0715 262.747 29.7614C263.422 29.4513 264.026 29.0073 264.524 28.4563C265.021 27.9054 265.401 27.259 265.641 26.5565C265.881 25.8539 265.976 25.1099 265.919 24.3697C265.98 23.6274 265.888 22.8806 265.65 22.1751C265.411 21.4695 265.032 20.8199 264.534 20.2661C264.036 19.7123 263.43 19.2659 262.754 18.9542C262.077 18.6425 261.344 18.4721 260.6 18.4534ZM259.692 27.2371C259.112 27.2604 258.538 27.1096 258.045 26.8042C257.552 26.4988 257.161 26.0527 256.924 25.5233C256.686 24.994 256.612 24.4056 256.712 23.834C256.812 23.2624 257.08 22.7337 257.483 22.316C257.885 21.8983 258.404 21.6107 258.972 21.4902C259.539 21.3697 260.13 21.4219 260.668 21.6401C261.205 21.8582 261.665 22.2322 261.988 22.7141C262.312 23.196 262.483 23.7635 262.481 24.3438C262.501 24.7201 262.443 25.0965 262.311 25.4495C262.179 25.8025 261.976 26.1246 261.715 26.3959C261.453 26.6672 261.138 26.8819 260.79 27.0266C260.443 27.1713 260.069 27.2429 259.692 27.2371Z" fill="white"/>
<path d="M277.142 18.6752C277.035 18.6652 276.928 18.6788 276.827 18.7151C276.727 18.7513 276.635 18.8093 276.56 18.8849C276.484 18.9604 276.426 19.0518 276.39 19.1524C276.354 19.2529 276.34 19.3603 276.35 19.4667V20.1543C275.929 19.5905 275.374 19.14 274.735 18.8434C274.096 18.5468 273.394 18.4132 272.691 18.4547C271.949 18.4736 271.219 18.6433 270.544 18.9534C269.87 19.2635 269.265 19.7075 268.768 20.2585C268.27 20.8094 267.89 21.4558 267.65 22.1583C267.41 22.8609 267.315 23.6048 267.372 24.3451C267.315 25.0853 267.41 25.8293 267.65 26.5318C267.89 27.2343 268.27 27.8807 268.768 28.4317C269.265 28.9826 269.87 29.4267 270.544 29.7367C271.219 30.0468 271.949 30.2165 272.691 30.2355C273.394 30.2735 274.095 30.1384 274.733 29.842C275.371 29.5456 275.926 29.0971 276.35 28.5358V30.0019H279.749V18.6752H277.142ZM273.6 27.2384C272.864 27.1891 272.175 26.8622 271.671 26.3238C271.168 25.7854 270.887 25.0758 270.887 24.3386C270.887 23.6014 271.168 22.8917 271.671 22.3533C272.175 21.8149 272.864 21.488 273.6 21.4388C274.335 21.488 275.024 21.8149 275.528 22.3533C276.032 22.8917 276.312 23.6014 276.312 24.3386C276.312 25.0758 276.032 25.7854 275.528 26.3238C275.024 26.8622 274.335 27.1891 273.6 27.2384Z" fill="white"/>
<path d="M286.627 30.2612C289.507 30.2612 291.259 28.7561 291.259 26.3688C291.259 24.7341 290.26 23.6183 288.197 23.1642L286.186 22.7101C285.407 22.5284 285.005 22.2819 285.005 21.8278C285.005 21.3737 285.381 21.0883 286.303 21.0883C287.37 21.1255 288.391 21.5391 289.183 22.256L290.882 19.7649C289.545 18.8294 287.932 18.3723 286.303 18.4674C283.604 18.4674 281.787 19.7649 281.787 22.0613C281.77 22.8765 282.058 23.6687 282.597 24.2813C283.135 24.8939 283.883 25.2823 284.694 25.3698L286.705 25.8499C287.704 26.0704 288.002 26.3689 288.002 26.7581C288.002 27.1473 287.587 27.5236 286.705 27.5236C285.436 27.4987 284.214 27.0409 283.241 26.2261L281.541 28.7172C283.029 29.8435 284.867 30.4086 286.731 30.3131L286.627 30.2612Z" fill="white"/>
<path d="M297.368 30.2619C300.248 30.2619 302 28.7569 302 26.3696C302 24.7348 301.001 23.619 298.938 23.1649L296.914 22.7108C296.148 22.5292 295.746 22.2827 295.746 21.8286C295.746 21.3745 296.123 21.089 297.044 21.089C298.108 21.1248 299.125 21.5388 299.911 22.2567L301.611 19.7656C300.28 18.8274 298.669 18.3699 297.044 18.4682C294.345 18.4682 292.529 19.7656 292.529 22.0621C292.511 22.8773 292.8 23.6695 293.338 24.282C293.876 24.8946 294.624 25.2831 295.435 25.3706L297.446 25.8506C298.445 26.0712 298.743 26.3696 298.743 26.7589C298.743 27.1481 298.341 27.5243 297.446 27.5243C296.177 27.4994 294.955 27.0417 293.982 26.2269L292.282 28.718C293.77 29.8442 295.608 30.4094 297.472 30.3138L297.368 30.2619Z" fill="white"/>
</g>
<defs>
<clipPath id="clip0_1232_16536">
<rect width="318" height="48" fill="white"/>
</clipPath>
</defs>
</svg>
