<svg width="200" height="200" viewBox="0 0 200 200" fill="none" xmlns="http://www.w3.org/2000/svg">
<rect width="200" height="200" fill="white"/>
<path fill-rule="evenodd" clip-rule="evenodd" d="M166.021 156.747H169.158C170.889 156.747 172.294 158.152 172.294 159.884V172.431C172.294 174.163 170.889 175.568 169.158 175.568H31.1369C29.4054 175.568 28 174.163 28 172.431V159.884C28 158.152 29.4054 156.747 31.1369 156.747H34.2739V141.063C34.2739 130.034 42.4798 120.962 53.0949 119.425V72.0525C53.0949 46.1045 74.1994 25 100.147 25C126.095 25 147.2 46.1045 147.2 72.0525V119.425C157.815 120.962 166.021 130.034 166.021 141.063V156.747ZM40.5474 156.747H53.0949V125.692C45.9429 127.154 40.5474 133.484 40.5474 141.063V156.747ZM87.6003 131.831H112.695C114.426 131.831 115.832 130.426 115.832 128.695C115.832 126.963 114.426 125.558 112.695 125.558H87.6003C85.8687 125.558 84.4633 126.963 84.4633 128.695C84.4633 130.426 85.8687 131.831 87.6003 131.831ZM81.3264 113.01H118.968C120.7 113.01 122.105 111.605 122.105 109.874C122.105 108.142 120.7 106.737 118.968 106.737H81.3264C79.5949 106.737 78.1895 108.142 78.1895 109.874C78.1895 111.605 79.5949 113.01 81.3264 113.01ZM81.3264 94.1895H118.968C120.7 94.1895 122.105 92.784 122.105 91.0525C122.105 89.321 120.7 87.9156 118.968 87.9156H81.3264C79.5949 87.9156 78.1895 89.321 78.1895 91.0525C78.1895 92.784 79.5949 94.1895 81.3264 94.1895ZM147.2 156.747H159.747V141.063C159.747 133.484 154.352 127.154 147.2 125.692V156.747ZM88.1476 74H95.0476L91.4176 66.92C93.0076 66.14 95.0176 64.31 95.0176 60.86C95.0176 57.11 92.4976 53.99 87.8176 53.99H77.1376V74H83.1976V67.58H85.3876L88.1476 74ZM86.8876 59.03C87.9076 59.03 88.8676 59.69 88.8676 60.77C88.8676 61.88 87.9076 62.54 86.8876 62.54H83.1976V59.03H86.8876ZM97.4696 74H103.53V53.99H97.4696V74ZM106.757 74H112.817V67.58H117.437C122.117 67.58 124.637 64.58 124.637 60.86C124.637 57.11 122.117 53.99 117.437 53.99H106.757V74ZM116.657 59.03C117.677 59.03 118.487 59.72 118.487 60.8C118.487 61.85 117.677 62.54 116.657 62.54H112.817V59.03H116.657Z" fill="#DE586C"/>
</svg>
